<svg xmlns="http://www.w3.org/2000/svg" xmlns:xlink="http://www.w3.org/1999/xlink" width="28" height="28" viewBox="0 0 28 28">
    <defs>
        <path id="a" d="M6.152 16.333a7.848 7.848 0 1 0 15.696 0"/>
    </defs>
    <g fill="none" fill-rule="evenodd">
        <path fill="#FFE385" d="M27.79 13.895c0 7.674-6.221 13.895-13.895 13.895C6.22 27.79 0 21.569 0 13.895 0 6.22 6.22 0 13.895 0 21.569 0 27.79 6.22 27.79 13.895"/>
        <mask id="b" fill="#fff">
            <use xlink:href="#a"/>
        </mask>
        <use fill="#19223C" xlink:href="#a"/>
        <path fill="#F46947" d="M6.152 26.09s1.909 1.486 7.626 1.486c5.718 0 7.858-1.485 7.858-1.485l-7.858-7.212-7.626 7.212z" mask="url(#b)" transform="rotate(-180 13.894 23.227)"/>
        <path fill="#F46947" d="M21.87 7.138a2.384 2.384 0 0 0-2.387.467 2.384 2.384 0 0 0-2.387-.467c-1.748.613-2.177 2.888-.773 4.096l3.16 2.717 3.16-2.717c1.405-1.208.975-3.483-.773-4.096M11.052 7.138a2.384 2.384 0 0 0-2.387.467 2.384 2.384 0 0 0-2.387-.467c-1.748.613-2.178 2.888-.773 4.096l3.16 2.717 3.16-2.717c1.404-1.208.975-3.483-.773-4.096"/>
    </g>
</svg>
