<svg xmlns="http://www.w3.org/2000/svg" width="28" height="28" viewBox="0 0 28 28">
    <g fill="none" fill-rule="evenodd">
        <path fill="#FFE385" d="M27.79 13.895c0 7.674-6.221 13.895-13.895 13.895C6.221 27.79 0 21.569 0 13.895 0 6.22 6.22 0 13.895 0 21.569 0 27.79 6.22 27.79 13.895"/>
        <path fill="#19223C" d="M17.86 19.854c-.51-1.228-2.097-2.086-3.86-2.086-1.764 0-3.35.858-3.86 2.086-.134.325-.524.485-.87.36-.346-.127-.517-.493-.382-.818.716-1.73 2.77-2.89 5.112-2.89 2.341 0 4.395 1.16 5.112 2.89.135.325-.036.69-.382.817a.706.706 0 0 1-.244.044.673.673 0 0 1-.626-.403z"/>
        <path fill="#FFF" stroke="#FFF" stroke-width=".56" d="M6.858 9.305l.024.05 5.164 1.864a2.947 2.947 0 1 1-5.188-1.914zm8.839 1.933l5.016-2.117a2.947 2.947 0 1 1-5.016 2.116z"/>
        <path fill="#19223C" d="M20.198 11.16a1.614 1.614 0 1 1-3.228 0 1.614 1.614 0 0 1 3.228 0"/>
        <path fill="#19223C" d="M14.877 11.73a.632.632 0 0 1 .287-.847l6.163-3.081a.631.631 0 1 1 .56 1.132l-6.164 3.082a.632.632 0 0 1-.846-.286zM13.141 11.73a.632.632 0 0 0-.286-.847L6.692 7.802a.631.631 0 1 0-.56 1.132l6.163 3.082a.632.632 0 0 0 .846-.286z"/>
        <path fill="#19223C" d="M7.636 11.16a1.614 1.614 0 1 0 3.229 0 1.614 1.614 0 0 0-3.229 0"/>
    </g>
</svg>
