<svg xmlns="http://www.w3.org/2000/svg" width="28" height="28" viewBox="0 0 28 28">
    <g fill="none" fill-rule="evenodd">
        <path fill="#FFE385" d="M27.79 13.895c0 7.674-6.221 13.895-13.895 13.895C6.22 27.79 0 21.569 0 13.895 0 6.221 6.22 0 13.895 0 21.569 0 27.79 6.22 27.79 13.895"/>
        <path fill="#FFF" stroke="#FFF" stroke-width=".56" d="M12.046 10.371a2.947 2.947 0 1 1-5.895 0 2.947 2.947 0 0 1 5.895 0"/>
        <path fill="#19223C" d="M10.864 10.523a1.614 1.614 0 1 1-3.228 0 1.614 1.614 0 0 1 3.228 0"/>
        <path fill="#FFF" stroke="#FFF" stroke-width=".56" d="M21.38 10.371a2.947 2.947 0 1 1-5.895 0 2.947 2.947 0 0 1 5.894 0"/>
        <path fill="#19223C" d="M19.903 10.523a1.614 1.614 0 1 1-3.228 0 1.614 1.614 0 0 1 3.228 0M7.75 18.445a.632.632 0 0 1 0-1.263h12.324a.632.632 0 0 1 0 1.263H7.75z"/>
    </g>
</svg>
