<svg xmlns="http://www.w3.org/2000/svg" width="28" height="28" viewBox="0 0 28 28">
    <g fill="none" fill-rule="evenodd">
        <path fill="#FFE385" d="M27.792 13.897c0 7.516-6.156 13.608-13.75 13.608S.292 21.413.292 13.897C.292 6.381 6.448.289 14.042.289s13.75 6.092 13.75 13.608"/>
        <path fill="#19223C" d="M17.965 19.733c-.503-1.202-2.074-2.042-3.82-2.042-1.744 0-3.315.84-3.819 2.042-.133.319-.518.475-.86.352-.343-.124-.512-.482-.379-.8.71-1.694 2.742-2.831 5.059-2.831 2.316 0 4.35 1.137 5.058 2.83.134.319-.036.677-.378.801a.705.705 0 0 1-.24.043.666.666 0 0 1-.62-.395z"/>
        <path fill="#FFF" stroke="#FFF" stroke-width=".56" d="M12.316 11.277c0 1.594-1.306 2.886-2.916 2.886-1.611 0-2.917-1.292-2.917-2.886S7.79 8.391 9.4 8.391c1.61 0 2.916 1.292 2.916 2.886"/>
        <path fill="#19223C" d="M11.147 11.218c0 .873-.715 1.58-1.597 1.58a1.59 1.59 0 0 1-1.598-1.58c0-.873.716-1.58 1.598-1.58.882 0 1.597.707 1.597 1.58"/>
        <path fill="#FFF" stroke="#FFF" stroke-width=".56" d="M21.552 11.277c0 1.594-1.306 2.886-2.916 2.886-1.61 0-2.917-1.292-2.917-2.886s1.306-2.886 2.917-2.886c1.61 0 2.916 1.292 2.916 2.886"/>
        <path fill="#19223C" d="M20.091 11.218c0 .873-.715 1.58-1.597 1.58a1.59 1.59 0 0 1-1.597-1.58c0-.873.715-1.58 1.597-1.58s1.597.707 1.597 1.58"/>
    </g>
</svg>
